<svg width="24" height="24" viewBox="0 0 24 24" fill="none" xmlns="http://www.w3.org/2000/svg">
<path d="M13.5 18L12.7972 17.4378L13.5 18ZM10.5 18L11.2028 17.4378L10.5 18ZM16.1279 14L16.9249 14.4182L16.1279 14ZM5.85903 14.2684C6.00729 13.794 5.74288 13.2892 5.26845 13.141C4.79402 12.9927 4.28923 13.2571 4.14097 13.7316L5.85903 14.2684ZM7.87207 14L7.07513 14.4182L7.87207 14ZM19.859 13.7316C19.7108 13.2571 19.206 12.9927 18.7316 13.141C18.2571 13.2892 17.9927 13.794 18.141 14.2684L19.859 13.7316ZM2.70286 21.3509L3.56189 21.6193L2.70286 21.3509ZM21.2971 21.3509L22.1562 21.0824L21.2971 21.3509ZM6.9 8C6.9 5.18335 9.18335 2.9 12 2.9V1.1C8.18924 1.1 5.1 4.18924 5.1 8H6.9ZM12 2.9C14.8167 2.9 17.1 5.18335 17.1 8H18.9C18.9 4.18924 15.8108 1.1 12 1.1V2.9ZM9.79722 18.5622C10.156 19.0107 10.7522 19.683 11.5979 19.8476C12.5738 20.0375 13.447 19.507 14.2028 18.5622L12.7972 17.4378C12.2177 18.1622 11.9517 18.0826 11.9417 18.0807C11.8017 18.0535 11.5655 17.8912 11.2028 17.4378L9.79722 18.5622ZM13.1 8C13.1 8.60751 12.6075 9.1 12 9.1V10.9C13.6016 10.9 14.9 9.60163 14.9 8H13.1ZM12 9.1C11.3925 9.1 10.9 8.60751 10.9 8H9.1C9.1 9.60163 10.3984 10.9 12 10.9V9.1ZM10.9 8C10.9 7.39249 11.3925 6.9 12 6.9V5.1C10.3984 5.1 9.1 6.39837 9.1 8H10.9ZM12 6.9C12.6075 6.9 13.1 7.39249 13.1 8H14.9C14.9 6.39837 13.6016 5.1 12 5.1V6.9ZM17.1 8C17.1 9.12133 16.5989 11.1656 15.331 13.5818L16.9249 14.4182C18.2681 11.8584 18.9 9.51916 18.9 8H17.1ZM15.331 13.5818C14.6849 14.813 13.8482 16.1241 12.7972 17.4378L14.2028 18.5622C15.3271 17.1569 16.2265 15.749 16.9249 14.4182L15.331 13.5818ZM20.8199 21.1H3.1801V22.9H20.8199V21.1ZM3.56189 21.6193L5.85903 14.2684L4.14097 13.7316L1.84382 21.0824L3.56189 21.6193ZM5.1 8C5.1 9.51916 5.73189 11.8584 7.07513 14.4182L8.66901 13.5818C7.40109 11.1656 6.9 9.12133 6.9 8H5.1ZM7.07513 14.4182C7.77348 15.749 8.67295 17.1569 9.79722 18.5622L11.2028 17.4378C10.1518 16.1241 9.31506 14.813 8.66901 13.5818L7.07513 14.4182ZM22.1562 21.0824L19.859 13.7316L18.141 14.2684L20.4381 21.6193L22.1562 21.0824ZM3.1801 21.1C3.44995 21.1 3.64238 21.3617 3.56189 21.6193L1.84382 21.0824C1.5621 21.9839 2.2356 22.9 3.1801 22.9V21.1ZM20.8199 22.9C21.7644 22.9 22.4379 21.9839 22.1562 21.0824L20.4381 21.6193C20.3576 21.3617 20.55 21.1 20.8199 21.1V22.9Z" fill="#303030"/>
</svg>
