<svg width="24" height="24" viewBox="0 0 24 24" fill="none" xmlns="http://www.w3.org/2000/svg">
<g clip-path="url(#clip0_1201:407)">
<rect width="24" height="24" fill="white"/>
<path d="M1.99993 15.9999L1.17751 16.3655C0.982072 15.9258 1.16706 15.4101 1.59744 15.195L1.99993 15.9999ZM4.00006 20.4999L4.28467 21.3538C3.84498 21.5003 3.36588 21.289 3.17764 20.8655L4.00006 20.4999ZM7.00003 19.4999L6.71543 18.6461C6.89133 18.5875 7.08105 18.5846 7.25865 18.6379L7.00003 19.4999ZM15.0001 14.9999L15.9001 14.9998L15.9001 14.9999L15.0001 14.9999ZM12.9999 16.4999L12.9999 17.3999L12.955 17.3999L12.9104 17.3955L12.9999 16.4999ZM7.91038 16.8955C7.41579 16.846 7.05494 16.405 7.1044 15.9104C7.15385 15.4158 7.59489 15.055 8.08948 15.1044L7.91038 16.8955ZM17.1917 17.633L16.4442 17.1317L17.1917 17.633ZM21.7939 10.7703L22.5414 11.2715L21.7939 10.7703ZM7.44113 13.2793L7.84363 14.0843L7.44113 13.2793ZM2.82235 15.6344L4.82248 20.1344L3.17764 20.8655L1.17751 16.3655L2.82235 15.6344ZM3.71546 19.6461L6.71543 18.6461L7.28464 20.3538L4.28467 21.3538L3.71546 19.6461ZM7.25865 18.6379L11.4069 19.8824L10.8897 21.6065L6.74142 20.362L7.25865 18.6379ZM1.59744 15.195L7.03864 12.4744L7.84363 14.0843L2.40242 16.8049L1.59744 15.195ZM8.74568 12.1973L15.1272 13.109L14.8727 14.8909L8.49112 13.9792L8.74568 12.1973ZM12.9999 15.5999C13.2655 15.5999 13.5877 15.5904 13.833 15.4852C13.9383 15.4401 13.9917 15.392 14.0218 15.3492C14.0482 15.3118 14.1001 15.2182 14.1001 14.9999L15.9001 14.9999C15.9001 15.5317 15.7644 16.0006 15.4939 16.3851C15.2272 16.7641 14.8743 16.9973 14.5421 17.1397C13.9124 17.4095 13.2345 17.3999 12.9999 17.3999L12.9999 15.5999ZM8.08948 15.1044L13.0895 15.6044L12.9104 17.3955L7.91038 16.8955L8.08948 15.1044ZM16.0606 4.76885C17.2756 6.87334 16.5545 9.56434 14.4501 10.7794L13.5501 9.22052C14.7936 8.50255 15.2197 6.91241 14.5017 5.66885L16.0606 4.76885ZM14.4501 10.7794C12.3456 11.9944 9.65458 11.2733 8.43955 9.16885L9.99839 8.26885C10.7164 9.51241 12.3065 9.93849 13.5501 9.22052L14.4501 10.7794ZM8.43955 9.16885C7.22452 7.06436 7.94558 4.37337 10.0501 3.15834L10.9501 4.71719C9.7065 5.43516 9.28042 7.02529 9.99839 8.26885L8.43955 9.16885ZM10.0501 3.15834C12.1545 1.94331 14.8455 2.66436 16.0606 4.76885L14.5017 5.66885C13.7838 4.42529 12.1936 3.99922 10.9501 4.71719L10.0501 3.15834ZM14.4238 13.3085L19.3465 9.20629L20.4988 10.5891L15.5761 14.6913L14.4238 13.3085ZM12.2935 19.7693L16.1012 17.4596L17.0347 18.9986L13.2271 21.3083L12.2935 19.7693ZM16.4442 17.1317L21.0464 10.269L22.5414 11.2715L17.9392 18.1343L16.4442 17.1317ZM15.8999 13.9998L15.9001 14.9998L14.1001 15.0001L14.0999 14.0001L15.8999 13.9998ZM16.1012 17.4596C16.238 17.3766 16.3551 17.2647 16.4442 17.1317L17.9392 18.1343C17.7042 18.4848 17.3955 18.7797 17.0347 18.9986L16.1012 17.4596ZM21.0464 10.269C20.9659 10.3891 20.9666 10.5461 21.0482 10.6655L22.5342 9.64985C22.868 10.1381 22.8708 10.7803 22.5414 11.2715L21.0464 10.269ZM7.03864 12.4744C7.56624 12.2106 8.16174 12.1139 8.74568 12.1973L8.49112 13.9792C8.26963 13.9476 8.04375 13.9843 7.84363 14.0843L7.03864 12.4744ZM19.3465 9.20629C20.3319 8.38507 21.8104 8.59079 22.5342 9.64985L21.0482 10.6655C20.9234 10.483 20.6686 10.4476 20.4988 10.5891L19.3465 9.20629ZM11.4069 19.8824C11.7052 19.9719 12.0273 19.9308 12.2935 19.7693L13.2271 21.3083C12.5253 21.734 11.6759 21.8423 10.8897 21.6065L11.4069 19.8824Z" fill="#9D2550"/>
</g>
<defs>
<clipPath id="clip0_1201:407">
<rect width="24" height="24" fill="white"/>
</clipPath>
</defs>
</svg>
