<svg width="24" height="24" viewBox="0 0 24 24" fill="none" xmlns="http://www.w3.org/2000/svg">
<rect width="24" height="24" fill="white"/>
<path d="M19.0001 20.9997V20.0997H19.0001L19.0001 20.9997ZM5.00006 20.9998V21.8998H5.00007L5.00006 20.9998ZM5.00006 18.9998V19.8998C5.23876 19.8998 5.46767 19.805 5.63646 19.6362C5.80524 19.4674 5.90006 19.2385 5.90006 18.9998H5.00006ZM19.0001 18.9997H18.1001C18.1001 19.2384 18.1949 19.4673 18.3637 19.6361C18.5324 19.8049 18.7614 19.8997 19.0001 19.8997V18.9997ZM18.0001 3.99981L18.72 4.53982C18.8705 4.33927 18.9304 4.08507 18.8855 3.83844C18.8405 3.59181 18.6948 3.37511 18.4833 3.24052L18.0001 3.99981ZM6.00006 3.99993L5.53697 3.22821C5.31849 3.35932 5.16581 3.5769 5.11684 3.82696C5.06787 4.07701 5.12718 4.33611 5.28007 4.53995L6.00006 3.99993ZM10.8539 4.71514C10.6967 4.24359 10.187 3.98876 9.71545 4.14594C9.2439 4.30313 8.98906 4.81282 9.14625 5.28437L10.8539 4.71514ZM14.3732 6.21805C14.4937 5.73584 14.2006 5.24719 13.7184 5.12663C13.2361 5.00607 12.7475 5.29925 12.6269 5.78146L14.3732 6.21805ZM10.0001 11.0998C9.503 11.0998 9.10006 11.5027 9.10006 11.9998C9.10006 12.4968 9.503 12.8998 10.0001 12.8998V11.0998ZM14.0001 12.8998C14.4971 12.8998 14.9001 12.4968 14.9001 11.9998C14.9001 11.5027 14.4971 11.0998 14.0001 11.0998V12.8998ZM10.0001 13.5998C9.503 13.5998 9.10006 14.0027 9.10006 14.4998C9.10006 14.9968 9.503 15.3998 10.0001 15.3998V13.5998ZM14.0001 15.3998C14.4971 15.3998 14.9001 14.9968 14.9001 14.4998C14.9001 14.0027 14.4971 13.5998 14.0001 13.5998V15.3998ZM11.1001 17.4998C11.1001 17.9968 11.503 18.3998 12.0001 18.3998C12.4971 18.3998 12.9001 17.9968 12.9001 17.4998H11.1001ZM19.0001 20.0997L5.00005 20.0998L5.00007 21.8998L19.0001 21.8997L19.0001 20.0997ZM5.00006 20.0998C5.00059 20.0998 4.97963 20.0991 4.95043 20.0907C4.92248 20.0827 4.90637 20.0734 4.90093 20.0695C4.89876 20.0679 4.90496 20.0726 4.90928 20.081C4.91396 20.0901 4.90006 20.0713 4.90006 19.9998H3.10006C3.10006 20.6932 3.40911 21.2134 3.84919 21.5302C4.24338 21.814 4.68938 21.8998 5.00006 21.8998V20.0998ZM4.90006 19.9998C4.90006 20.0004 4.90084 19.9794 4.90918 19.9502C4.91717 19.9223 4.92653 19.9061 4.93044 19.9007C4.93201 19.8985 4.92729 19.9047 4.91893 19.9091C4.90984 19.9137 4.92855 19.8998 5.00006 19.8998V18.0998C4.30673 18.0998 3.78654 18.4089 3.46968 18.849C3.18586 19.2431 3.10006 19.6891 3.10006 19.9998H4.90006ZM19.0001 19.8997C18.9995 19.8997 19.0205 19.9005 19.0497 19.9089C19.0776 19.9168 19.0938 19.9262 19.0992 19.9301C19.1014 19.9317 19.0952 19.927 19.0908 19.9186C19.0862 19.9095 19.1001 19.9282 19.1001 19.9997H20.9001C20.9001 19.3064 20.591 18.7862 20.1509 18.4693C19.7567 18.1855 19.3107 18.0997 19.0001 18.0997V19.8997ZM19.0001 21.8997C19.3107 21.8997 19.7567 21.8139 20.1509 21.5301C20.591 21.2133 20.9001 20.6931 20.9001 19.9997H19.1001C19.1001 20.0712 19.0862 20.0899 19.0908 20.0809C19.0952 20.0725 19.1014 20.0678 19.0992 20.0693C19.0938 20.0733 19.0776 20.0826 19.0497 20.0906C19.0205 20.0989 18.9995 20.0997 19.0001 20.0997V21.8997ZM19.9001 18.9997C19.9001 17.4205 19.6396 15.0844 18.9885 12.8707C18.3493 10.6974 17.2737 8.43369 15.4993 7.25079L14.5008 8.74848C15.7265 9.56557 16.6508 11.3019 17.2616 13.3786C17.8605 15.415 18.1001 17.579 18.1001 18.9997H19.9001ZM5.90006 18.9998C5.90006 17.5791 6.13957 15.4151 6.73849 13.3787C7.34928 11.3021 8.27365 9.56569 9.49929 8.7486L8.50083 7.25091C6.72647 8.43382 5.65085 10.6975 5.01163 12.8708C4.36055 15.0845 4.10006 17.4206 4.10006 18.9998H5.90006ZM15.72 8.53965L18.72 4.53982L17.2801 3.45979L14.2801 7.45962L15.72 8.53965ZM9.72005 7.45974L6.72005 3.45992L5.28007 4.53995L8.28007 8.53977L9.72005 7.45974ZM6.46315 4.77165C7.68848 4.03637 9.18026 3.24365 10.9867 3.01783C12.7647 2.79557 14.9311 3.1136 17.5169 4.7591L18.4833 3.24052C15.569 1.38597 12.9854 0.953972 10.7634 1.23174C8.56986 1.50595 6.81164 2.46332 5.53697 3.22821L6.46315 4.77165ZM9.00012 8.89976L11.0001 8.89963L11 7.09963L9 7.09976L9.00012 8.89976ZM11.8539 7.71501L10.8539 4.71514L9.14625 5.28437L10.1462 8.28425L11.8539 7.71501ZM11.0001 8.89963H13.0001V7.09963H11.0001V8.89963ZM13.0001 8.89963H15.0001V7.09963H13.0001V8.89963ZM13.8732 8.21793L14.3732 6.21805L12.6269 5.78146L12.1269 7.78134L13.8732 8.21793ZM10.0001 12.8998H14.0001V11.0998H10.0001V12.8998ZM10.0001 15.3998H12.0001V13.5998H10.0001V15.3998ZM12.0001 15.3998H14.0001V13.5998H12.0001V15.3998ZM11.1001 14.4998V17.4998H12.9001V14.4998H11.1001Z" fill="#303030"/>
</svg>
