<svg width="24" height="24" viewBox="0 0 24 24" fill="none" xmlns="http://www.w3.org/2000/svg">
<rect width="24" height="24" fill="white"/>
<path d="M4 20H3.1C3.1 20.4971 3.50294 20.9 4 20.9V20ZM20 20V20.9C20.4971 20.9 20.9 20.4971 20.9 20H20ZM20 10H20.9C20.9 9.71672 20.7666 9.44997 20.54 9.28L20 10ZM12 4L12.54 3.28C12.22 3.04 11.78 3.04 11.46 3.28L12 4ZM4 10L3.46 9.28C3.23337 9.44997 3.1 9.71672 3.1 10H4ZM17.3333 8L16.7933 8.72L17.3333 8ZM2 19.1C1.50294 19.1 1.1 19.5029 1.1 20C1.1 20.4971 1.50294 20.9 2 20.9V19.1ZM22 20.9C22.4971 20.9 22.9 20.4971 22.9 20C22.9 19.5029 22.4971 19.1 22 19.1V20.9ZM17 7.75L16.46 8.47L17 7.75ZM17.9 5C17.9 4.50294 17.4971 4.1 17 4.1C16.5029 4.1 16.1 4.50294 16.1 5H17.9ZM20.9 20V10H19.1V20H20.9ZM11.46 3.28L3.46 9.28L4.54 10.72L12.54 4.72L11.46 3.28ZM3.1 10V20H4.9V10H3.1ZM20.54 9.28L17.8733 7.28L16.7933 8.72L19.46 10.72L20.54 9.28ZM14.9 20V16H13.1V20H14.9ZM14.9 16C14.9 15.5226 14.7642 14.8266 14.3304 14.2241C13.8635 13.5757 13.0933 13.1 12 13.1V14.9C12.5067 14.9 12.7365 15.091 12.8696 15.2759C13.0358 15.5067 13.1 15.8107 13.1 16H14.9ZM12 13.1C10.9067 13.1 10.1365 13.5757 9.66962 14.2241C9.2358 14.8266 9.1 15.5226 9.1 16H10.9C10.9 15.8107 10.9642 15.5067 11.1304 15.2759C11.2635 15.091 11.4933 14.9 12 14.9V13.1ZM9.1 16V20H10.9V16H9.1ZM20 19.1H14V20.9H20V19.1ZM10 19.1H4V20.9H10V19.1ZM4 10.9H20V9.1H4V10.9ZM2 20.9H22V19.1H2V20.9ZM14 19.1H10V20.9H14V19.1ZM17.8733 7.28L17.54 7.03L16.46 8.47L16.7933 8.72L17.8733 7.28ZM17.54 7.03L12.54 3.28L11.46 4.72L16.46 8.47L17.54 7.03ZM17.9 7.75V5H16.1V7.75H17.9Z" fill="#303030"/>
</svg>
