<svg width="26" height="26" viewBox="0 0 26 26" fill="none" xmlns="http://www.w3.org/2000/svg">
<path d="M25.9187 11.6103C25.7813 11.3146 25.5066 11.1372 25.1926 11.1372H22.9557C22.7398 11.1372 22.5436 11.2161 22.4063 11.3541C21.0327 12.5959 19.4629 13.1676 17.6184 13.069C14.4003 12.8522 11.9867 10.4079 12.026 7.39196C12.0456 5.12509 13.8901 3.29189 16.2055 3.29189C17.1278 3.29189 18.0697 3.72555 18.6584 4.43518C18.7565 4.55345 18.9135 4.77028 19.0116 4.98711C19.0704 5.16452 19.0704 5.34193 19.0116 5.51933C18.8546 5.91357 18.4033 6.15011 17.9912 6.03184V6.01213C17.7165 5.91357 17.4418 5.87415 17.1671 5.87415C16.1859 5.87415 15.3029 6.50493 14.9497 7.43139C14.6161 8.35785 14.8908 9.38287 15.6365 10.0334C15.6757 10.0728 15.715 10.1122 15.7542 10.1319L15.8131 10.1713C15.8131 10.1713 15.8131 10.1713 15.8327 10.1911C15.8523 10.2108 15.8916 10.2502 15.9308 10.2699C17.1082 10.9204 18.5406 10.9795 19.7572 10.3882C21.1504 9.69826 22.1512 8.279 22.4063 6.58378C22.6417 5.06596 22.1904 3.52843 21.1504 2.30629C19.9534 0.867324 18.1089 0.0197119 16.2448 0H16.1467C12.1044 0 8.78825 3.29189 8.749 7.35254C8.72938 8.16073 8.82749 8.9492 9.02372 9.67854C8.88636 9.67854 8.749 9.65883 8.61164 9.63912C5.31507 9.42229 2.37169 10.7824 0.193596 13.5027C-0.0222519 13.7589 -0.0614969 14.094 0.0954831 14.3897C0.23284 14.6657 0.507555 14.8628 0.821515 14.8628H3.05848C3.27433 14.8628 3.47055 14.7839 3.60791 14.6459C4.98148 13.3844 6.57091 12.8127 8.3958 12.931C11.6139 13.1281 14.0275 15.5724 13.9882 18.608C13.9686 20.8749 12.1241 22.7081 9.80862 22.7081C8.88636 22.6884 7.94448 22.2547 7.3558 21.5648C7.25769 21.4466 7.10071 21.2297 7.0026 20.9932C6.94373 20.8158 6.94373 20.6384 7.0026 20.4807C7.15958 20.0864 7.6109 19.8499 8.02297 19.9682C8.29768 20.0667 8.5724 20.1259 8.84711 20.1259C9.82824 20.1259 10.7113 19.4951 11.0645 18.5686C11.398 17.6422 11.1233 16.5974 10.3777 15.9469C10.3384 15.9075 10.3188 15.8878 10.2599 15.8681L10.2011 15.8287C10.2011 15.8089 10.2011 15.8089 10.1814 15.8089C10.1618 15.7695 10.1226 15.7498 10.0833 15.7301C8.90598 15.0599 7.47354 15.0205 6.25695 15.6118C4.86375 16.3017 3.863 17.721 3.60791 19.4162C3.37244 20.934 3.82376 22.4519 4.86375 23.6937C6.06072 25.113 7.90523 25.9803 9.76937 26H9.86748C13.9097 26 17.2259 22.6884 17.2652 18.6475C17.2848 17.8393 17.1671 17.0508 16.9904 16.3017C17.1278 16.3215 17.2652 16.3412 17.4025 16.3412C17.638 16.3609 17.8538 16.3609 18.0697 16.3609C21.1112 16.3609 23.7798 15.0205 25.8206 12.4776C26.0168 12.2411 26.056 11.906 25.9187 11.6103Z" fill="#0DB4C4"/>
</svg>
