<svg width="24" height="24" viewBox="0 0 24 24" fill="none" xmlns="http://www.w3.org/2000/svg">
<rect width="24" height="24" fill="white"/>
<path d="M12 21L11.28 21.54C11.45 21.7667 11.7167 21.9 12 21.9C12.2833 21.9 12.5501 21.7667 12.72 21.54L12 21ZM21 6.99988H21.9C21.9 6.50282 21.497 6.09988 21 6.09988V6.99988ZM19 4.99988H19.9C19.9 4.69896 19.7496 4.41795 19.4992 4.25103L19 4.99988ZM2.99995 6.99988V6.09988C2.5029 6.09988 2.09995 6.50282 2.09995 6.99988H2.99995ZM4.99995 4.99988L4.50072 4.25103C4.25035 4.41795 4.09995 4.69896 4.09995 4.99988H4.99995ZM9.63635 11.3635C9.28487 11.012 8.71502 11.012 8.36355 11.3635C8.01208 11.715 8.01209 12.2848 8.36356 12.6363L9.63635 11.3635ZM12 14.9999L11.3636 15.6363C11.562 15.8346 11.8414 15.9291 12.1195 15.8919C12.3975 15.8547 12.6423 15.6899 12.7814 15.4464L12 14.9999ZM16.7814 8.4464C17.028 8.01483 16.878 7.46506 16.4465 7.21846C16.0149 6.97185 15.4651 7.12179 15.2185 7.55336L16.7814 8.4464ZM12.72 21.54C12.8194 21.4075 13.0049 21.2391 13.3281 21.0165C13.647 20.7966 14.0328 20.5681 14.5011 20.2879C15.4167 19.7401 16.564 19.0444 17.6679 18.0408C19.9243 15.9895 21.9 12.7448 21.9 6.99988H20.1C20.1 12.2549 18.3256 15.0102 16.4571 16.709C15.4985 17.5804 14.4895 18.1972 13.5769 18.7433C13.1312 19.01 12.685 19.2736 12.3067 19.5343C11.9325 19.7921 11.5556 20.0925 11.28 20.4601L12.72 21.54ZM21 6.09988C20.8107 6.09988 20.5067 6.03568 20.2759 5.8695C20.0909 5.73635 19.9 5.50655 19.9 4.99988H18.1C18.1 6.09321 18.5757 6.8634 19.2241 7.33026C19.8266 7.76408 20.5226 7.89988 21 7.89988V6.09988ZM12.72 20.4601C12.4444 20.0925 12.0674 19.7921 11.6933 19.5343C11.315 19.2736 10.8688 19.01 10.423 18.7433C9.5104 18.1972 8.50146 17.5804 7.54287 16.709C5.67428 15.0102 3.89995 12.2549 3.89995 6.99988H2.09995C2.09995 12.7448 4.07563 15.9895 6.33205 18.0408C7.43596 19.0444 8.58328 19.7401 9.49882 20.2879C9.96714 20.5681 10.3529 20.7966 10.6719 21.0165C10.9951 21.2391 11.1806 21.4075 11.28 21.54L12.72 20.4601ZM2.99995 7.89988C3.47731 7.89988 4.17331 7.76408 4.77583 7.33026C5.42424 6.8634 5.89995 6.09321 5.89995 4.99988H4.09995C4.09995 5.50655 3.909 5.73635 3.72408 5.8695C3.49327 6.03568 3.18927 6.09988 2.99995 6.09988V7.89988ZM5.49918 5.74872C6.42098 5.13419 8.24607 3.89988 12 3.89988V2.09988C7.75384 2.09988 5.57893 3.53223 4.50072 4.25103L5.49918 5.74872ZM19.4992 4.25103C18.421 3.53223 16.2461 2.09988 12 2.09988V3.89988C15.7539 3.89988 17.579 5.13419 18.5007 5.74872L19.4992 4.25103ZM8.36356 12.6363L11.3636 15.6363L12.6364 14.3635L9.63635 11.3635L8.36356 12.6363ZM12.7814 15.4464L16.7814 8.4464L15.2185 7.55336L11.2186 14.5534L12.7814 15.4464Z" fill="#303030"/>
</svg>
