<svg width="24" height="24" viewBox="0 0 24 24" fill="none" xmlns="http://www.w3.org/2000/svg">
<path d="M2.9 19.75C2.9 18.2267 3.70489 16.7934 5.26435 15.7073C6.83188 14.6156 9.14132 13.9 12 13.9C14.8587 13.9 17.1681 14.6156 18.7357 15.7073C20.2951 16.7934 21.1 18.2267 21.1 19.75C21.1 19.7874 21.0949 19.8503 21.0789 19.9206C21.0628 19.9911 21.0408 20.0462 21.0201 20.082C21.0158 20.0896 21.012 20.0954 21.0089 20.0998C21.0063 20.0999 21.0034 20.1 21 20.1H3C2.99664 20.1 2.99368 20.0999 2.99109 20.0998C2.98798 20.0954 2.9842 20.0896 2.97988 20.082C2.95922 20.0462 2.93725 19.9911 2.92112 19.9206C2.90507 19.8504 2.9 19.7874 2.9 19.75Z" stroke="#303030" stroke-width="1.8"/>
<path d="M16.1 8C16.1 10.2644 14.2644 12.1 12 12.1C9.73563 12.1 7.9 10.2644 7.9 8C7.9 5.73563 9.73563 3.9 12 3.9C14.2644 3.9 16.1 5.73563 16.1 8Z" stroke="#303030" stroke-width="1.8"/>
</svg>
