<svg width="24" height="16" viewBox="0 0 24 16" fill="none" xmlns="http://www.w3.org/2000/svg">
<path fillRule="evenodd" clipRule="evenodd" d="M0.353794 7.35192C1.85119 4.61882 5.64463 0.333374 11.6611 0.333374C17.6777 0.333374 21.4711 4.61882 22.9685 7.35192C23.234 7.83653 23.2363 8.41799 22.9742 8.90443C21.5985 11.4571 17.9691 15.9215 11.6611 15.9215C5.35316 15.9215 1.72384 11.4571 0.348129 8.90443C0.0859714 8.418 0.0882875 7.83653 0.353794 7.35192ZM11.6609 12.0244C13.8131 12.0244 15.5579 10.2797 15.5579 8.12738C15.5579 5.9751 13.8131 4.23033 11.6609 4.23033C9.50858 4.23033 7.76381 5.9751 7.76381 8.12738C7.76381 10.2797 9.50858 12.0244 11.6609 12.0244Z" fill="white"/>
</svg>
