<svg width="39" height="38" viewBox="0 0 39 38" fill="none" xmlns="http://www.w3.org/2000/svg">
<path d="M21.9492 11.0989C21.8475 10.7163 21.6043 10.3964 21.2641 10.1984C20.562 9.78955 19.6609 10.033 19.2554 10.7413L19.029 11.1366L18.8027 10.7412C18.3972 10.0331 17.4961 9.78955 16.7939 10.1984H16.7939C16.0917 10.6073 15.8503 11.516 16.2557 12.2243L17.331 14.1027L13.3632 21.0338H10.4705C9.65968 21.0338 9 21.6991 9 22.5169C9 23.3347 9.65968 24 10.4705 24H21.6383L19.9403 21.0338H16.7593L21.8023 12.2244C21.9987 11.8813 22.051 11.4816 21.9492 11.0989Z" fill="#1E2A41"/>
<path d="M27.5845 20.9139H24.8L21.6345 15L20 18.0536L24.9149 27.2358C25.104 27.589 25.4092 27.8417 25.7745 27.9473C25.8964 27.9825 26.0202 28 26.1431 28C26.3884 28 26.6305 27.9306 26.8487 27.7947C27.5246 27.3738 27.757 26.4381 27.3667 25.7091L26.4345 23.9676H27.5845C28.365 23.9676 29 23.2826 29 22.4407C29 21.5988 28.365 20.9139 27.5845 20.9139Z" fill="#1E2A41"/>
<path d="M10.5007 25L10.2027 25.5553C9.78496 26.3337 10.0338 27.3326 10.7573 27.782C10.9953 27.9298 11.2555 28.0001 11.5124 28C12.0364 28 12.5468 27.7076 12.8272 27.1853L14 25H10.5007Z" fill="#1E2A41"/>
<rect x="1" y="1" width="37" height="36" rx="3" stroke="#1E2A41" stroke-width="2"/>
</svg>
