<svg width="24" height="24" viewBox="0 0 24 24" fill="none" xmlns="http://www.w3.org/2000/svg">
<path d="M9.98651 12.874C8.94605 12.874 7.98266 12.874 7 12.874C7 11.668 7 10.5411 7 9.33503C7.96339 9.33503 8.90751 9.33503 9.90944 9.33503C9.92871 9.13732 9.94798 8.99892 9.94798 8.84075C9.94798 8.129 9.94798 7.41724 9.94798 6.70549C9.94798 6.01351 10.0443 5.32152 10.2755 4.64931C10.7765 3.24557 11.7977 2.41519 13.2042 2.11863C13.7245 2.01977 14.2832 2 14.8035 2C15.5164 2 16.2486 2.05931 17 2.09885C17 3.18626 17 4.21435 17 5.32152C16.4605 5.32152 15.9595 5.32152 15.4393 5.32152C15.1696 5.32152 14.9191 5.32152 14.6493 5.36106C14.0328 5.45992 13.6667 5.83557 13.5703 6.46824C13.5125 6.82412 13.5125 7.19976 13.5125 7.55564C13.5125 8.10923 13.5125 8.66282 13.5125 9.27571C14.6686 9.33503 15.7669 9.27571 16.9229 9.31526C16.8459 10.5015 16.6532 11.6482 16.5183 12.8543C15.5356 12.8543 14.5723 12.8543 13.5511 12.8543C13.5125 13.5265 13.5318 14.1196 13.5318 14.7127C13.5318 15.3059 13.5318 15.9188 13.5318 16.5119C13.5318 17.105 13.5318 17.7179 13.5318 18.311C13.5318 18.9042 13.5318 19.5171 13.5318 20.1102C13.5318 20.7033 13.5318 21.3162 13.5318 21.9687C12.3565 22.028 11.2004 21.9884 9.96725 21.9687C9.98651 18.9437 9.98651 15.9583 9.98651 12.874Z" fill="#1E2A41"/>
</svg>
