<svg width="39" height="38" viewBox="0 0 39 38" fill="none" xmlns="http://www.w3.org/2000/svg">
<rect x="1" y="1" width="37" height="36" rx="3" stroke="#1E2A41" stroke-width="2"/>
<path d="M21.1192 18.9668C19.6493 20.7907 18.1927 22.5966 16.7361 24.4024C15.8068 25.5582 14.8729 26.7094 13.9481 27.8652C13.8632 27.9735 13.7783 28.0051 13.6442 27.9961C12.9249 27.9374 12.3083 27.3821 12.1028 26.5695C12.0357 26.3121 12.0045 26.0367 12.0045 25.7659C12 21.2738 12 16.7726 12 12.276C12 11.6033 12.1474 10.9758 12.6389 10.4837C12.9204 10.1948 13.2689 10.0458 13.671 10.0051C13.8498 9.98708 13.957 10.0458 14.0687 10.1812C14.9623 11.3009 15.8604 12.4115 16.754 13.5266C18.1659 15.2828 19.5778 17.039 20.9897 18.7952C21.0299 18.8449 21.0701 18.899 21.1192 18.9668Z" fill="#1E2A41"/>
<path d="M24.8008 22.0045C23.9787 20.9842 23.17 19.9774 22.3479 18.9616C23.1566 17.9594 23.9519 16.9706 24.7562 15.9729C25.4934 16.4063 26.2306 16.8171 26.941 17.2686C27.58 17.6794 28.0223 18.2393 28 19.0564C27.9821 19.7246 27.638 20.2302 27.1242 20.6004C26.7266 20.8894 26.2932 21.1241 25.8732 21.377C25.5202 21.5891 25.1672 21.7878 24.8008 22.0045Z" fill="#1E2A41"/>
<path d="M23.9654 22.4877C21.1729 24.1175 18.4161 25.7293 15.6593 27.3365C15.6504 27.3229 15.637 27.3139 15.6281 27.3004C17.6565 24.7812 19.6895 22.2575 21.7358 19.7202C22.4775 20.6412 23.2148 21.5532 23.9654 22.4877Z" fill="#1E2A41"/>
<path d="M23.9206 15.4898C23.1834 16.4063 22.4685 17.2912 21.7358 18.1941C19.7475 15.7246 17.7771 13.2731 15.8022 10.8171C15.8112 10.8036 15.8246 10.7855 15.8335 10.772C18.5233 12.3386 21.2086 13.9097 23.9206 15.4898Z" fill="#1E2A41"/>
</svg>
