<svg width="308" height="308" viewBox="0 0 308 308" fill="none" xmlns="http://www.w3.org/2000/svg">
<path d="M91.9937 159.548C89.0976 156.212 84.0449 155.854 80.7082 158.751C77.3714 161.647 77.0143 166.699 79.9104 170.036L91.9937 159.548ZM137.951 224.701L131.909 229.945C133.515 231.796 135.881 232.808 138.329 232.692C140.776 232.577 143.036 231.345 144.46 229.352L137.951 224.701ZM227.792 112.699C230.361 109.104 229.528 104.107 225.933 101.539C222.338 98.9707 217.341 99.8031 214.773 103.398L227.792 112.699ZM287.601 184.328C270.851 258.114 197.458 304.351 123.672 287.601L120.13 303.204C202.533 321.91 284.498 270.273 303.204 187.87L287.601 184.328ZM123.672 287.601C49.8864 270.851 3.64943 197.458 20.399 123.672L4.79597 120.13C-13.9098 202.533 37.7272 284.498 120.13 303.204L123.672 287.601ZM20.399 123.672C37.1486 49.8865 110.542 3.64948 184.328 20.3991L187.87 4.79603C105.467 -13.9097 23.5017 37.7272 4.79597 120.13L20.399 123.672ZM184.328 20.3991C258.114 37.1486 304.351 110.542 287.601 184.328L303.204 187.87C321.91 105.467 270.273 23.5018 187.87 4.79603L184.328 20.3991ZM79.9104 170.036L131.909 229.945L143.992 219.457L91.9937 159.548L79.9104 170.036ZM144.46 229.352L227.792 112.699L214.773 103.398L131.441 220.051L144.46 229.352Z" fill="#F3F3F3"/>
</svg>
