<svg width="24" height="24" viewBox="0 0 24 24" fill="none" xmlns="http://www.w3.org/2000/svg">
<path d="M11.6706 19.5147C9.46749 19.4492 7.28617 19.4056 5.08304 19.3402C4.5377 19.3183 3.97056 19.2529 3.42523 19.122C2.48726 18.9257 1.85468 18.3586 1.52748 17.4424C1.22209 16.5699 1.15665 15.6755 1.09121 14.7594C0.960335 12.7308 0.960336 10.7239 1.15665 8.6953C1.22209 7.99728 1.35297 7.32107 1.52748 6.64486C1.83286 5.5542 2.63995 4.8998 3.75243 4.76892C4.84309 4.63804 5.93375 4.5726 7.04623 4.55079C10.0783 4.50716 13.1103 4.50716 16.1423 4.52898C17.1458 4.52898 18.171 4.61623 19.1744 4.68167C19.5016 4.70348 19.8288 4.76892 20.156 4.85617C20.9194 5.09612 21.4866 5.59782 21.792 6.36129C22.1192 7.19019 22.2064 8.06272 22.2719 8.91344C22.4464 11.2256 22.4246 13.5597 22.1846 15.8719C22.141 16.3299 22.0319 16.7662 21.901 17.2025C21.5302 18.4458 20.6577 19.122 19.3925 19.2093C17.6911 19.3183 15.9896 19.3838 14.2664 19.4274C13.4157 19.4492 12.565 19.4274 11.7143 19.4274C11.6706 19.4928 11.6706 19.5147 11.6706 19.5147ZM15.0735 11.8582C13.1757 10.8766 11.3652 9.93866 9.51112 8.95706C9.51112 10.9639 9.51112 12.8834 9.51112 14.8903C11.3871 13.8869 13.1976 12.9271 15.0735 11.8582Z" fill="#1E2A41"/>
</svg>
